<svg width="95" height="95" viewBox="0 0 95 95" fill="none" xmlns="http://www.w3.org/2000/svg">
<path d="M81.8056 21.1111H60.6945V26.3889H81.8056V81.8055H60.6945V87.0833H87.0833V26.3889C87.0833 24.9891 86.5273 23.6467 85.5375 22.6569C84.5477 21.6671 83.2053 21.1111 81.8056 21.1111Z" fill="#B3E7E3"/>
<path d="M52.4611 7.91663H16.15C14.6662 7.91663 13.2433 8.50604 12.1941 9.5552C11.145 10.6044 10.5555 12.0273 10.5555 13.5111V87.0833H58.0555V13.5111C58.0555 12.0273 57.4661 10.6044 56.417 9.5552C55.3678 8.50604 53.9448 7.91663 52.4611 7.91663ZM52.7778 81.8055H44.8611V73.8888H23.75V81.8055H15.8333V13.5111C15.8333 13.4695 15.8415 13.4283 15.8574 13.3899C15.8733 13.3515 15.8967 13.3166 15.9261 13.2872C15.9555 13.2577 15.9904 13.2344 16.0288 13.2185C16.0672 13.2026 16.1084 13.1944 16.15 13.1944H52.4611C52.5027 13.1944 52.5439 13.2026 52.5823 13.2185C52.6207 13.2344 52.6556 13.2577 52.685 13.2872C52.7144 13.3166 52.7377 13.3515 52.7537 13.3899C52.7696 13.4283 52.7778 13.4695 52.7778 13.5111V81.8055Z" fill="#B3E7E3"/>
<path d="M21.1111 21.1111H26.3889V26.3889H21.1111V21.1111Z" fill="#B3E7E3"/>
<path d="M31.6667 21.1111H36.9445V26.3889H31.6667V21.1111Z" fill="#B3E7E3"/>
<path d="M42.2222 21.1111H47.5V26.3889H42.2222V21.1111Z" fill="#B3E7E3"/>
<path d="M21.1111 34.3055H26.3889V39.5833H21.1111V34.3055Z" fill="#B3E7E3"/>
<path d="M31.6667 34.3055H36.9445V39.5833H31.6667V34.3055Z" fill="#B3E7E3"/>
<path d="M42.2222 34.3055H47.5V39.5833H42.2222V34.3055Z" fill="#B3E7E3"/>
<path d="M21.1111 47.5H26.3889V52.7778H21.1111V47.5Z" fill="#B3E7E3"/>
<path d="M31.6667 47.5H36.9445V52.7778H31.6667V47.5Z" fill="#B3E7E3"/>
<path d="M21.1111 60.6945H26.3889V65.9722H21.1111V60.6945Z" fill="#B3E7E3"/>
<path d="M31.6667 60.6945H36.9445V65.9722H31.6667V60.6945Z" fill="#B3E7E3"/>
<path d="M42.2222 60.6945H47.5V65.9722H42.2222V60.6945Z" fill="#B3E7E3"/>
<path d="M60.6945 34.3055H65.9722V39.5833H60.6945V34.3055Z" fill="#B3E7E3"/>
<path d="M71.25 34.3055H76.5278V39.5833H71.25V34.3055Z" fill="#B3E7E3"/>
<path d="M71.25 47.5H76.5278V52.7778H71.25V47.5Z" fill="#B3E7E3"/>
<path d="M60.6945 60.6945H65.9722V65.9722H60.6945V60.6945Z" fill="#B3E7E3"/>
<path d="M71.25 60.6945H76.5278V65.9722H71.25V60.6945Z" fill="#B3E7E3"/>
</svg>
