<svg width="26" height="34" viewBox="0 0 26 34" fill="none" xmlns="http://www.w3.org/2000/svg">
<path fill-rule="evenodd" clip-rule="evenodd" d="M7.43511 3.4H18.5123V0H21.2817V3.4H22.6663C23.4008 3.4 24.1052 3.75821 24.6245 4.39584C25.1438 5.03346 25.4356 5.89826 25.4356 6.8V30.6C25.4356 31.5017 25.1438 32.3665 24.6245 33.0042C24.1052 33.6418 23.4008 34 22.6663 34H3.28115C2.54668 34 1.8423 33.6418 1.32295 33.0042C0.803606 32.3665 0.511841 31.5017 0.511841 30.6V6.8C0.511841 5.89826 0.803606 5.03346 1.32295 4.39584C1.8423 3.75821 2.54668 3.4 3.28115 3.4H4.6658V0H7.43511V3.4ZM3.28115 10.2V30.6H22.6663V10.2H3.28115ZM6.05046 15.3H8.81977V18.7H6.05046V15.3ZM11.5891 15.3H14.3584V18.7H11.5891V15.3ZM17.1277 15.3H19.897V18.7H17.1277V15.3ZM17.1277 22.1H19.897V25.5H17.1277V22.1ZM11.5891 22.1H14.3584V25.5H11.5891V22.1ZM6.05046 22.1H8.81977V25.5H6.05046V22.1Z" fill="#838383"/>
</svg>
