<svg width="35" height="36" viewBox="0 0 35 36" fill="none" xmlns="http://www.w3.org/2000/svg">
<path d="M17.5 0C7.83594 0 0 7.9862 0 17.8356C0 27.6849 7.83594 35.6711 17.5 35.6711C27.1641 35.6711 35 27.6849 35 17.8356C35 7.9862 27.1641 0 17.5 0ZM24.3945 23.3176L23.2773 24.8703C23.253 24.9041 23.2224 24.9327 23.1873 24.9544C23.1521 24.9761 23.1131 24.9905 23.0724 24.9968C23.0317 25.0031 22.9903 25.0011 22.9504 24.991C22.9104 24.9809 22.8729 24.9629 22.8398 24.938L16.3789 20.1367C16.3387 20.1072 16.3059 20.0683 16.2835 20.0233C16.2611 19.9783 16.2496 19.9284 16.25 19.8779V8.91779C16.25 8.74261 16.3906 8.59929 16.5625 8.59929H18.4414C18.6133 8.59929 18.7539 8.74261 18.7539 8.91779V18.7711L24.3242 22.8757C24.4648 22.9752 24.4961 23.1743 24.3945 23.3176Z" fill="#B3E7E3"/>
</svg>
