<svg width="95" height="95" viewBox="0 0 95 95" fill="none" xmlns="http://www.w3.org/2000/svg">
<path d="M95 9.5H87.6923V4.43492C87.6923 1.995 85.5767 0 82.9971 0H59.4956C56.9233 0 54.8077 1.995 54.8077 4.43492V9.5H10.8538L0 28.5H7.53606V41.1667H6.31567L0.228365 47.5L6.31567 53.8333H7.64933V57.2343C7.64933 58.0941 8.41481 58.7892 9.36298 58.7892C12.1965 58.7892 14.5021 60.8855 14.5021 63.4616C14.5021 66.0377 12.1965 68.134 9.36298 68.134C6.52942 68.134 4.22385 66.0377 4.22385 63.4616C4.22385 62.6018 3.45654 61.9067 2.51019 61.9067C1.56202 61.9067 0.796538 62.6018 0.796538 63.4616C0.800192 67.7588 4.64038 71.25 9.36298 71.25C14.0838 71.25 17.9276 67.7588 17.9276 63.4632C17.9276 59.7028 14.9808 56.5551 11.0766 55.8347V53.8333H12.4085L18.4976 47.5L12.4085 41.1667H11.1899V28.5H54.8077V39.8984C54.8077 42.0011 56.3807 43.7633 58.4615 44.2162V95H63.2572V85.5L79.2428 90.25L63.2572 95H84.0385V44.2146C86.1212 43.7633 87.6923 42.0011 87.6923 39.8984V28.5H95V23.75H91.2037L95 17.5038V9.5ZM8.4824 23.75L12.7501 16.1516L17.3649 23.75H8.4824ZM16.5611 14.25H24.1483L20.3556 20.4963L16.5611 14.25ZM23.3462 23.75L27.1408 17.5038L30.9371 23.75H23.3462ZM30.1333 14.25H37.7205L33.926 20.4963L30.1333 14.25ZM36.9203 23.75L40.713 17.5038L44.5057 23.75H36.9203ZM43.7055 14.25H51.2927L47.5 20.4963L43.7055 14.25ZM54.8077 23.75H50.4907L54.2834 17.5038L54.8077 18.3667V23.75ZM79.2428 85.5L63.2572 80.75L79.2428 76V85.5ZM63.2572 76V66.5L79.2428 71.2532L63.2572 76ZM79.2428 66.5L63.2572 61.75L79.2428 57V66.5ZM63.2572 57V47.5032L79.2428 52.25L63.2572 57ZM79.2428 47.5032L68.5827 44.3333H79.2428V47.5032ZM81.9832 20.976C81.9832 22.5008 80.7482 23.75 79.2428 23.75H62.7968C61.2914 23.75 60.0601 22.5008 60.0601 20.976V7.5335C60.0601 5.99925 61.2914 4.75 62.7968 4.75H79.2428C80.7482 4.75 81.9832 5.99925 81.9832 7.5335V20.976ZM88.213 20.4963L87.6923 19.6381V14.25H92.0057L88.213 20.4963Z" fill="#B3E7E3"/>
</svg>
