<svg width="35" height="41" viewBox="0 0 35 41" fill="none" xmlns="http://www.w3.org/2000/svg">
<path d="M17.5 0C27.1654 0 35 7.51141 35 16.7781C35 23.8679 29.8038 31.5944 19.5462 40.0402C18.9758 40.51 18.2486 40.768 17.4966 40.7673C16.7447 40.7667 16.018 40.5075 15.4485 40.0368L14.77 39.4723C4.96641 31.2468 0 23.7096 0 16.7781C0 7.51141 7.83462 0 17.5 0ZM17.5 10.325C15.7149 10.325 14.0029 11.0048 12.7406 12.215C11.4784 13.4252 10.7692 15.0666 10.7692 16.7781C10.7692 18.4895 11.4784 20.1309 12.7406 21.3411C14.0029 22.5513 15.7149 23.2312 17.5 23.2312C19.2851 23.2312 20.9971 22.5513 22.2594 21.3411C23.5216 20.1309 24.2308 18.4895 24.2308 16.7781C24.2308 15.0666 23.5216 13.4252 22.2594 12.215C20.9971 11.0048 19.2851 10.325 17.5 10.325Z" fill="#B3E7E3"/>
</svg>
