<svg width="35" height="36" viewBox="0 0 35 36" fill="none" xmlns="http://www.w3.org/2000/svg">
<path d="M35 10.2734V28.4256C35.0001 30.2764 34.4443 32.057 33.4466 33.4023C32.4489 34.7476 31.0849 35.5555 29.6345 35.6602L29.3125 35.6714H5.6875C4.23476 35.6715 2.83705 34.9634 1.7811 33.6924C0.725142 32.4213 0.0909977 30.6836 0.0087502 28.8359L0 28.4256V10.2734L16.891 21.5455C17.0789 21.6709 17.2879 21.7364 17.5 21.7364C17.7121 21.7364 17.9211 21.6709 18.109 21.5455L35 10.2734ZM5.6875 5.26266e-08H29.3125C30.7223 -0.000216291 32.0819 0.666599 33.1276 1.87111C34.1733 3.07563 34.8306 4.73199 34.972 6.51895L17.5 18.179L0.0280001 6.51895C0.163666 4.80296 0.775337 3.20489 1.75306 2.01201C2.73079 0.819124 4.01044 0.10966 5.362 0.0111476L5.6875 5.26266e-08H29.3125H5.6875Z" fill="#B3E7E3"/>
</svg>
