<svg width="35" height="36" viewBox="0 0 35 36" fill="none" xmlns="http://www.w3.org/2000/svg">
<path d="M34.357 27.9421L26.3706 20.5414C25.9931 20.1917 25.497 20.0052 24.9871 20.0213C24.4771 20.0373 23.9933 20.2547 23.6377 20.6275L18.9362 25.5553C17.8045 25.335 15.5294 24.6122 13.1875 22.2314C10.8456 19.8426 10.1364 17.5179 9.92615 16.3726L14.7573 11.5789C15.1236 11.2168 15.3372 10.7236 15.3529 10.2037C15.3687 9.6839 15.1854 9.17821 14.8418 8.79368L7.58228 0.656152C7.23854 0.270414 6.7608 0.0364354 6.25052 0.00390815C5.74024 -0.028619 5.23762 0.142868 4.8494 0.481949L0.586031 4.20831C0.246358 4.55575 0.043619 5.01816 0.0162714 5.50783C-0.0131989 6.00842 -0.575099 17.8663 8.44674 27.0651C16.3173 35.0845 26.1761 35.6711 28.8913 35.6711C29.2881 35.6711 29.5318 35.6591 29.5966 35.6551C30.077 35.6277 30.5305 35.4202 30.8697 35.0724L34.524 30.7254C34.858 30.331 35.0275 29.8191 34.9963 29.2991C34.9651 28.7791 34.7357 28.2921 34.357 27.9421Z" fill="#B3E7E3"/>
</svg>
