<svg width="95" height="95" viewBox="0 0 95 95" fill="none" xmlns="http://www.w3.org/2000/svg">
<path d="M92.625 65.3125H90.25V45.2549C90.25 42.8984 89.493 40.6348 88.157 38.9648L73.3281 20.4287C71.9922 18.7588 70.1813 17.8125 68.2961 17.8125H61.75V8.90625C61.75 3.98926 58.5586 0 54.625 0H7.125C3.19141 0 0 3.98926 0 8.90625V68.2812C0 73.1982 3.19141 77.1875 7.125 77.1875H9.5C9.5 87.0215 15.8828 95 23.75 95C31.6172 95 38 87.0215 38 77.1875H57C57 87.0215 63.3828 95 71.25 95C79.1172 95 85.5 87.0215 85.5 77.1875H92.625C93.9313 77.1875 95 75.8516 95 74.2188V68.2812C95 66.6484 93.9313 65.3125 92.625 65.3125ZM23.75 86.0938C19.8164 86.0938 16.625 82.1045 16.625 77.1875C16.625 72.2705 19.8164 68.2812 23.75 68.2812C27.6836 68.2812 30.875 72.2705 30.875 77.1875C30.875 82.1045 27.6836 86.0938 23.75 86.0938ZM71.25 86.0938C67.3164 86.0938 64.125 82.1045 64.125 77.1875C64.125 72.2705 67.3164 68.2812 71.25 68.2812C75.1836 68.2812 78.375 72.2705 78.375 77.1875C78.375 82.1045 75.1836 86.0938 71.25 86.0938ZM83.125 47.5H61.75V26.7188H68.2961L83.125 45.2549V47.5Z" fill="#B9D9D6"/>
</svg>
